<svg width="47" height="44" viewBox="0 0 47 44" fill="none" xmlns="http://www.w3.org/2000/svg">
<path d="M45.8817 43.7327C46.4176 43.7327 46.852 43.2983 46.852 42.7624C46.852 42.2265 46.4176 41.7921 45.8817 41.7921C45.3458 41.7921 44.9114 42.2265 44.9114 42.7624C44.9114 43.2983 45.3458 43.7327 45.8817 43.7327Z" fill="#64CCE3"/>
<path d="M45.8817 35.3451C46.4176 35.3451 46.852 34.9107 46.852 34.3748C46.852 33.8389 46.4176 33.4045 45.8817 33.4045C45.3458 33.4045 44.9114 33.8389 44.9114 34.3748C44.9114 34.9107 45.3458 35.3451 45.8817 35.3451Z" fill="#64CCE3"/>
<path d="M45.8817 26.9595C46.4176 26.9595 46.852 26.5251 46.852 25.9892C46.852 25.4533 46.4176 25.0189 45.8817 25.0189C45.3458 25.0189 44.9114 25.4533 44.9114 25.9892C44.9114 26.5251 45.3458 26.9595 45.8817 26.9595Z" fill="#64CCE3"/>
<path d="M45.8817 18.6428C46.4176 18.6428 46.852 18.2084 46.852 17.6725C46.852 17.1367 46.4176 16.7023 45.8817 16.7023C45.3458 16.7023 44.9114 17.1367 44.9114 17.6725C44.9114 18.2084 45.3458 18.6428 45.8817 18.6428Z" fill="#64CCE3"/>
<path d="M45.8817 10.2573C46.4176 10.2573 46.852 9.82292 46.852 9.28705C46.852 8.75118 46.4176 8.31677 45.8817 8.31677C45.3458 8.31677 44.9114 8.75118 44.9114 9.28705C44.9114 9.82292 45.3458 10.2573 45.8817 10.2573Z" fill="#64CCE3"/>
<path d="M45.8817 1.94068C46.4176 1.94068 46.852 1.50627 46.852 0.9704C46.852 0.43453 46.4176 0.00012207 45.8817 0.00012207C45.3458 0.00012207 44.9114 0.43453 44.9114 0.9704C44.9114 1.50627 45.3458 1.94068 45.8817 1.94068Z" fill="#64CCE3"/>
<path d="M36.9402 43.7325C37.4761 43.7325 37.9105 43.2981 37.9105 42.7623C37.9105 42.2264 37.4761 41.792 36.9402 41.792C36.4044 41.792 35.97 42.2264 35.97 42.7623C35.97 43.2981 36.4044 43.7325 36.9402 43.7325Z" fill="#64CCE3"/>
<path d="M36.9402 35.345C37.4761 35.345 37.9105 34.9106 37.9105 34.3747C37.9105 33.8388 37.4761 33.4044 36.9402 33.4044C36.4044 33.4044 35.97 33.8388 35.97 34.3747C35.97 34.9106 36.4044 35.345 36.9402 35.345Z" fill="#64CCE3"/>
<path d="M36.9402 26.9594C37.4761 26.9594 37.9105 26.5249 37.9105 25.9891C37.9105 25.4532 37.4761 25.0188 36.9402 25.0188C36.4044 25.0188 35.97 25.4532 35.97 25.9891C35.97 26.5249 36.4044 26.9594 36.9402 26.9594Z" fill="#64CCE3"/>
<path d="M36.9402 18.6427C37.4761 18.6427 37.9105 18.2083 37.9105 17.6724C37.9105 17.1366 37.4761 16.7021 36.9402 16.7021C36.4044 16.7021 35.97 17.1366 35.97 17.6724C35.97 18.2083 36.4044 18.6427 36.9402 18.6427Z" fill="#64CCE3"/>
<path d="M36.9402 10.2572C37.4761 10.2572 37.9105 9.8228 37.9105 9.28693C37.9105 8.75106 37.4761 8.31665 36.9402 8.31665C36.4044 8.31665 35.97 8.75106 35.97 9.28693C35.97 9.8228 36.4044 10.2572 36.9402 10.2572Z" fill="#64CCE3"/>
<path d="M36.9406 1.94056C37.4765 1.94056 37.9109 1.50615 37.9109 0.970278C37.9109 0.434408 37.4765 0 36.9406 0C36.4047 0 35.9703 0.434408 35.9703 0.970278C35.9703 1.50615 36.4047 1.94056 36.9406 1.94056Z" fill="#64CCE3"/>
<path d="M27.9305 43.7325C28.4664 43.7325 28.9008 43.2981 28.9008 42.7623C28.9008 42.2264 28.4664 41.792 27.9305 41.792C27.3947 41.792 26.9603 42.2264 26.9603 42.7623C26.9603 43.2981 27.3947 43.7325 27.9305 43.7325Z" fill="#64CCE3"/>
<path d="M27.9305 35.345C28.4664 35.345 28.9008 34.9106 28.9008 34.3747C28.9008 33.8388 28.4664 33.4044 27.9305 33.4044C27.3947 33.4044 26.9603 33.8388 26.9603 34.3747C26.9603 34.9106 27.3947 35.345 27.9305 35.345Z" fill="#64CCE3"/>
<path d="M27.9305 26.9594C28.4664 26.9594 28.9008 26.5249 28.9008 25.9891C28.9008 25.4532 28.4664 25.0188 27.9305 25.0188C27.3947 25.0188 26.9603 25.4532 26.9603 25.9891C26.9603 26.5249 27.3947 26.9594 27.9305 26.9594Z" fill="#64CCE3"/>
<path d="M27.9305 18.6427C28.4664 18.6427 28.9008 18.2083 28.9008 17.6724C28.9008 17.1366 28.4664 16.7021 27.9305 16.7021C27.3947 16.7021 26.9603 17.1366 26.9603 17.6724C26.9603 18.2083 27.3947 18.6427 27.9305 18.6427Z" fill="#64CCE3"/>
<path d="M27.9305 10.2572C28.4664 10.2572 28.9008 9.8228 28.9008 9.28693C28.9008 8.75106 28.4664 8.31665 27.9305 8.31665C27.3947 8.31665 26.9603 8.75106 26.9603 9.28693C26.9603 9.8228 27.3947 10.2572 27.9305 10.2572Z" fill="#64CCE3"/>
<path d="M27.931 1.94056C28.4668 1.94056 28.9012 1.50615 28.9012 0.970278C28.9012 0.434408 28.4668 0 27.931 0C27.3951 0 26.9607 0.434408 26.9607 0.970278C26.9607 1.50615 27.3951 1.94056 27.931 1.94056Z" fill="#64CCE3"/>
<path d="M18.9208 43.7325C19.4567 43.7325 19.8911 43.2981 19.8911 42.7623C19.8911 42.2264 19.4567 41.792 18.9208 41.792C18.385 41.792 17.9506 42.2264 17.9506 42.7623C17.9506 43.2981 18.385 43.7325 18.9208 43.7325Z" fill="#64CCE3"/>
<path d="M18.9208 35.345C19.4567 35.345 19.8911 34.9106 19.8911 34.3747C19.8911 33.8388 19.4567 33.4044 18.9208 33.4044C18.385 33.4044 17.9506 33.8388 17.9506 34.3747C17.9506 34.9106 18.385 35.345 18.9208 35.345Z" fill="#64CCE3"/>
<path d="M18.9208 26.9594C19.4567 26.9594 19.8911 26.5249 19.8911 25.9891C19.8911 25.4532 19.4567 25.0188 18.9208 25.0188C18.385 25.0188 17.9506 25.4532 17.9506 25.9891C17.9506 26.5249 18.385 26.9594 18.9208 26.9594Z" fill="#64CCE3"/>
<path d="M18.9208 18.6427C19.4567 18.6427 19.8911 18.2083 19.8911 17.6724C19.8911 17.1366 19.4567 16.7021 18.9208 16.7021C18.385 16.7021 17.9506 17.1366 17.9506 17.6724C17.9506 18.2083 18.385 18.6427 18.9208 18.6427Z" fill="#64CCE3"/>
<path d="M18.9208 10.2572C19.4567 10.2572 19.8911 9.8228 19.8911 9.28693C19.8911 8.75106 19.4567 8.31665 18.9208 8.31665C18.385 8.31665 17.9506 8.75106 17.9506 9.28693C17.9506 9.8228 18.385 10.2572 18.9208 10.2572Z" fill="#64CCE3"/>
<path d="M18.9214 1.94056C19.4573 1.94056 19.8917 1.50615 19.8917 0.970278C19.8917 0.434408 19.4573 0 18.9214 0C18.3856 0 17.9512 0.434408 17.9512 0.970278C17.9512 1.50615 18.3856 1.94056 18.9214 1.94056Z" fill="#64CCE3"/>
<path d="M9.91107 43.7325C10.4469 43.7325 10.8814 43.2981 10.8814 42.7623C10.8814 42.2264 10.4469 41.792 9.91107 41.792C9.3752 41.792 8.9408 42.2264 8.9408 42.7623C8.9408 43.2981 9.3752 43.7325 9.91107 43.7325Z" fill="#64CCE3"/>
<path d="M9.91107 35.345C10.4469 35.345 10.8814 34.9106 10.8814 34.3747C10.8814 33.8388 10.4469 33.4044 9.91107 33.4044C9.3752 33.4044 8.9408 33.8388 8.9408 34.3747C8.9408 34.9106 9.3752 35.345 9.91107 35.345Z" fill="#64CCE3"/>
<path d="M9.91107 26.9594C10.4469 26.9594 10.8814 26.5249 10.8814 25.9891C10.8814 25.4532 10.4469 25.0188 9.91107 25.0188C9.3752 25.0188 8.9408 25.4532 8.9408 25.9891C8.9408 26.5249 9.3752 26.9594 9.91107 26.9594Z" fill="#64CCE3"/>
<path d="M9.91107 18.6427C10.4469 18.6427 10.8814 18.2083 10.8814 17.6724C10.8814 17.1366 10.4469 16.7021 9.91107 16.7021C9.3752 16.7021 8.9408 17.1366 8.9408 17.6724C8.9408 18.2083 9.3752 18.6427 9.91107 18.6427Z" fill="#64CCE3"/>
<path d="M9.91107 10.2572C10.4469 10.2572 10.8814 9.8228 10.8814 9.28693C10.8814 8.75106 10.4469 8.31665 9.91107 8.31665C9.3752 8.31665 8.9408 8.75106 8.9408 9.28693C8.9408 9.8228 9.3752 10.2572 9.91107 10.2572Z" fill="#64CCE3"/>
<path d="M9.91187 1.94056C10.4477 1.94056 10.8821 1.50615 10.8821 0.970278C10.8821 0.434408 10.4477 0 9.91187 0C9.376 0 8.94159 0.434408 8.94159 0.970278C8.94159 1.50615 9.376 1.94056 9.91187 1.94056Z" fill="#64CCE3"/>
<path d="M0.970278 43.7325C1.50615 43.7325 1.94056 43.2981 1.94056 42.7623C1.94056 42.2264 1.50615 41.792 0.970278 41.792C0.434408 41.792 0 42.2264 0 42.7623C0 43.2981 0.434408 43.7325 0.970278 43.7325Z" fill="#64CCE3"/>
<path d="M0.970278 35.345C1.50615 35.345 1.94056 34.9106 1.94056 34.3747C1.94056 33.8388 1.50615 33.4044 0.970278 33.4044C0.434408 33.4044 0 33.8388 0 34.3747C0 34.9106 0.434408 35.345 0.970278 35.345Z" fill="#64CCE3"/>
<path d="M0.970278 26.9594C1.50615 26.9594 1.94056 26.5249 1.94056 25.9891C1.94056 25.4532 1.50615 25.0188 0.970278 25.0188C0.434408 25.0188 0 25.4532 0 25.9891C0 26.5249 0.434408 26.9594 0.970278 26.9594Z" fill="#64CCE3"/>
<path d="M0.970278 18.6427C1.50615 18.6427 1.94056 18.2083 1.94056 17.6724C1.94056 17.1366 1.50615 16.7021 0.970278 16.7021C0.434408 16.7021 0 17.1366 0 17.6724C0 18.2083 0.434408 18.6427 0.970278 18.6427Z" fill="#64CCE3"/>
<path d="M0.970278 10.2572C1.50615 10.2572 1.94056 9.8228 1.94056 9.28693C1.94056 8.75106 1.50615 8.31665 0.970278 8.31665C0.434408 8.31665 0 8.75106 0 9.28693C0 9.8228 0.434408 10.2572 0.970278 10.2572Z" fill="#64CCE3"/>
<path d="M0.970339 1.94056C1.50621 1.94056 1.94062 1.50615 1.94062 0.970278C1.94062 0.434408 1.50621 0 0.970339 0C0.434469 0 6.10352e-05 0.434408 6.10352e-05 0.970278C6.10352e-05 1.50615 0.434469 1.94056 0.970339 1.94056Z" fill="#64CCE3"/>
</svg>
