<svg width="27" height="18" viewBox="0 0 27 18" fill="none" xmlns="http://www.w3.org/2000/svg">
<path d="M22.9597 17.0249C22.7506 17.0249 22.5434 16.9565 22.3704 16.8215L15.757 11.5939C15.5289 11.4114 15.3958 11.1377 15.3958 10.8468V1.34208C15.3958 0.819316 15.8216 0.391602 16.3463 0.391602H25.8511C26.3757 0.391602 26.8015 0.819316 26.8015 1.34208V10.8468C26.8015 11.3696 26.3757 11.7973 25.8511 11.7973H22.4464L23.857 15.7551C23.9995 16.1543 23.8589 16.5991 23.5148 16.8462C23.3513 16.966 23.1574 17.0249 22.9597 17.0249Z" fill="#26C296"/>
<path d="M7.71248 17.0249C7.50338 17.0249 7.29617 16.9565 7.12318 16.8215L0.509771 11.5939C0.281657 11.4114 0.14859 11.1377 0.14859 10.8468V1.34208C0.14859 0.819316 0.574403 0.391602 1.09907 0.391602H10.6038C11.1285 0.391602 11.5543 0.819316 11.5543 1.34208V10.8468C11.5543 11.3696 11.1285 11.7973 10.6038 11.7973H7.19922L8.60973 15.7551C8.7523 16.1543 8.61163 16.5991 8.26756 16.8462C8.10408 16.966 7.91018 17.0249 7.71248 17.0249Z" fill="#26C296"/>
</svg>
